<svg width="856" height="379" viewBox="0 0 856 379" fill="none" xmlns="http://www.w3.org/2000/svg">
<path d="M461.338 9.85465C461.71 9.85466 462.082 9.85467 462.465 9.85467C465.636 9.85475 465.636 9.85475 466.984 9.8548C472.638 9.85494 478.292 9.85212 483.947 9.84744C549.614 9.79409 549.614 9.79409 581.067 10.6345C581.744 10.6524 582.42 10.6703 583.096 10.6882C590.181 10.8762 597.265 11.0685 604.344 11.3314C604.863 11.3504 604.863 11.3504 605.393 11.3699C617.717 11.823 630.038 12.3369 642.357 12.85C644.275 12.9298 646.192 13.0092 648.11 13.0885C661.323 13.6364 674.529 14.2258 687.727 14.9413C688.516 14.9837 688.516 14.9837 689.32 15.027C762.704 18.9996 762.704 18.9996 780.382 33.5636C804.15 54.1589 804.861 84.2506 804.785 109.716C804.782 110.671 804.781 111.625 804.779 112.58C804.758 123.726 804.31 134.816 803.267 145.939C803.136 147.378 803.014 148.817 802.894 150.257C802.683 152.794 802.449 155.33 802.202 157.866C802.109 158.829 802.023 159.793 801.942 160.757C801.34 167.749 799.934 173.562 792.757 178.691C790.061 180.298 787.089 181.647 783.854 182.616C783.254 182.799 783.254 182.799 782.642 182.986C780.254 183.454 778.022 183.435 775.558 183.419C775.007 183.417 774.455 183.415 773.887 183.413C765.518 183.35 757.158 182.989 748.802 182.668C746.5 182.58 744.198 182.495 741.896 182.41C737.417 182.244 732.938 182.074 728.459 181.903C728.493 182.522 728.493 182.522 728.528 183.154C729.074 192.985 729.618 202.817 730.16 212.648C730.227 213.861 730.294 215.075 730.361 216.288C730.374 216.529 730.387 216.771 730.401 217.02C730.616 220.917 730.832 224.814 731.049 228.711C731.271 232.717 731.493 236.724 731.713 240.731C731.836 242.978 731.96 245.225 732.086 247.472C732.204 249.592 732.321 251.712 732.436 253.832C732.479 254.606 732.522 255.379 732.566 256.152C732.681 258.202 732.787 260.251 732.87 262.301C732.897 262.943 732.927 263.584 732.959 264.225C733.003 265.151 733.033 266.077 733.059 267.004C733.074 267.274 733.089 267.545 733.105 267.824C733.138 269.793 732.473 270.904 730.932 272.532C729.072 273.792 726.912 273.871 724.452 273.816C721.727 273.411 720.015 272.114 718.072 270.748C717.647 270.456 717.223 270.165 716.785 269.864C714.277 268.099 711.927 266.254 709.664 264.326C709.258 263.985 708.852 263.644 708.433 263.293C705.338 260.687 702.37 258.02 699.452 255.311C698.808 254.715 698.16 254.122 697.509 253.529C689.003 245.776 680.874 237.82 672.868 229.795C672.076 229.003 671.281 228.213 670.486 227.422C667.076 224.032 663.724 220.616 660.403 217.181C658.86 215.586 657.308 213.997 655.752 212.41C653.592 210.205 651.439 207.998 649.291 205.787C648.855 205.338 648.855 205.338 648.41 204.88C646.798 203.217 645.2 201.549 643.616 199.873C637.64 193.557 632.887 189.9 622.119 188.414C611.406 187.17 600.601 187.73 589.826 188.142C587.578 188.227 585.33 188.307 583.082 188.388C579.221 188.528 575.361 188.67 571.5 188.814C565.379 189.043 559.257 189.265 553.136 189.486C551.059 189.561 548.982 189.636 546.905 189.711C546.389 189.73 545.874 189.749 545.344 189.768C541.683 189.9 538.022 190.033 534.362 190.167C515.701 190.847 497.039 191.505 478.375 192.139C477.823 192.157 477.823 192.157 477.259 192.177C438.28 193.501 399.29 194.676 331.368 196.375C326.892 196.473 322.417 196.581 317.942 196.699C308.215 196.955 298.489 197.127 288.757 197.245C288.274 197.252 287.791 197.258 287.293 197.264C245.207 197.789 203.472 196.536 158.554 194.476C155.762 194.348 152.969 194.223 150.177 194.098C140.523 193.664 130.873 193.204 121.226 192.693C119.652 192.61 118.078 192.528 116.504 192.447C68.7157 189.983 68.7157 189.983 54.1296 178.959C49.6839 174.858 48.4101 170.213 47.7037 165.176C47.615 164.564 47.615 164.564 47.5245 163.94C47.3324 162.606 47.1447 161.271 46.9579 159.937C46.8928 159.475 46.8277 159.014 46.7606 158.539C43.921 138.373 41.8216 118.223 41.7967 97.9441C41.7955 97.1343 41.7929 96.3245 41.7901 95.5147C41.7662 86.0327 42.1413 76.5151 43.8048 67.0995C43.8452 66.8649 43.8856 66.6303 43.9273 66.3886C45.1681 59.2482 46.8996 52.0133 50.3583 45.2449C50.4811 45.0027 50.6039 44.7605 50.7304 44.5109C54.7836 36.6368 60.3229 30.343 71.1316 26.6909C71.5142 26.5442 71.8967 26.3974 72.2908 26.2463C80.7324 23.1532 91.0492 22.5191 100.313 21.6956C100.847 21.6479 100.847 21.6479 101.391 21.5994C147.801 17.4988 194.78 16.1067 342.82 11.0986C345.041 11.0346 347.262 10.9693 349.483 10.9036C386.757 9.80589 424.041 9.85384 461.338 9.85465Z" fill="white"/>
<path d="M461.338 9.85465C461.71 9.85466 462.082 9.85467 462.465 9.85467C465.636 9.85475 465.636 9.85475 466.984 9.8548C472.638 9.85494 478.292 9.85212 483.947 9.84744C549.614 9.79409 549.614 9.79409 581.067 10.6345C581.744 10.6524 582.42 10.6703 583.096 10.6882C590.181 10.8762 597.265 11.0685 604.344 11.3314C604.863 11.3504 604.863 11.3504 605.393 11.3699C617.717 11.823 630.038 12.3369 642.357 12.85C644.275 12.9298 646.192 13.0092 648.11 13.0885C661.323 13.6364 674.529 14.2258 687.727 14.9413C688.516 14.9837 688.516 14.9837 689.32 15.027C762.704 18.9996 762.704 18.9996 780.382 33.5636C804.15 54.1589 804.861 84.2506 804.785 109.716C804.782 110.671 804.781 111.625 804.779 112.58C804.758 123.726 804.31 134.816 803.267 145.939C803.136 147.378 803.014 148.817 802.894 150.257C802.683 152.794 802.449 155.33 802.202 157.866C802.109 158.829 802.023 159.793 801.942 160.757C801.34 167.749 799.934 173.562 792.757 178.691C790.061 180.298 787.089 181.647 783.854 182.616C783.254 182.799 783.254 182.799 782.642 182.986C780.254 183.454 778.022 183.435 775.558 183.419C775.007 183.417 774.455 183.415 773.887 183.413C765.518 183.35 757.158 182.989 748.802 182.668C746.5 182.58 744.198 182.495 741.896 182.41C737.417 182.244 732.938 182.074 728.459 181.903C728.493 182.522 728.493 182.522 728.528 183.154C729.074 192.985 729.618 202.817 730.16 212.648C730.227 213.861 730.294 215.075 730.361 216.288C730.374 216.529 730.387 216.771 730.401 217.02C730.616 220.917 730.832 224.814 731.049 228.711C731.271 232.717 731.493 236.724 731.713 240.731C731.836 242.978 731.96 245.225 732.086 247.472C732.204 249.592 732.321 251.712 732.436 253.832C732.479 254.606 732.522 255.379 732.566 256.152C732.681 258.202 732.787 260.251 732.87 262.301C732.897 262.943 732.927 263.584 732.959 264.225C733.003 265.151 733.033 266.077 733.059 267.004C733.074 267.274 733.089 267.545 733.105 267.824C733.138 269.793 732.473 270.904 730.932 272.532C729.072 273.792 726.912 273.871 724.452 273.816C721.727 273.411 720.015 272.114 718.072 270.748C717.647 270.456 717.223 270.165 716.785 269.864C714.277 268.099 711.927 266.254 709.664 264.326C709.258 263.985 708.852 263.644 708.433 263.293C705.338 260.687 702.37 258.02 699.452 255.311C698.808 254.715 698.16 254.122 697.509 253.529C689.003 245.776 680.874 237.82 672.868 229.795C672.076 229.003 671.281 228.213 670.486 227.422C667.076 224.032 663.724 220.616 660.403 217.181C658.86 215.586 657.308 213.997 655.752 212.41C653.592 210.205 651.439 207.998 649.291 205.787C648.855 205.338 648.855 205.338 648.41 204.88C646.798 203.217 645.2 201.549 643.616 199.873C637.64 193.557 632.887 189.9 622.119 188.414C611.406 187.17 600.601 187.73 589.826 188.142C587.578 188.227 585.33 188.307 583.082 188.388C579.221 188.528 575.361 188.67 571.5 188.814C565.379 189.043 559.257 189.265 553.136 189.486C551.059 189.561 548.982 189.636 546.905 189.711C546.389 189.73 545.874 189.749 545.344 189.768C541.683 189.9 538.022 190.033 534.362 190.167C515.701 190.847 497.039 191.505 478.375 192.139C477.823 192.157 477.823 192.157 477.259 192.177C438.28 193.501 399.29 194.676 331.368 196.375C326.892 196.473 322.417 196.581 317.942 196.699C308.215 196.955 298.489 197.127 288.757 197.245C288.274 197.252 287.791 197.258 287.293 197.264C245.207 197.789 203.472 196.536 158.554 194.476C155.762 194.348 152.969 194.223 150.177 194.098C140.523 193.664 130.873 193.204 121.226 192.693C119.652 192.61 118.078 192.528 116.504 192.447C68.7157 189.983 68.7157 189.983 54.1296 178.959C49.6839 174.858 48.4101 170.213 47.7037 165.176C47.615 164.564 47.615 164.564 47.5245 163.94C47.3324 162.606 47.1447 161.271 46.9579 159.937C46.8928 159.475 46.8277 159.014 46.7606 158.539C43.921 138.373 41.8216 118.223 41.7967 97.9441C41.7955 97.1343 41.7929 96.3245 41.7901 95.5147C41.7662 86.0327 42.1413 76.5151 43.8048 67.0995C43.8452 66.8649 43.8856 66.6303 43.9273 66.3886C45.1681 59.2482 46.8996 52.0133 50.3583 45.2449C50.4811 45.0027 50.6039 44.7605 50.7304 44.5109C54.7836 36.6368 60.3229 30.343 71.1316 26.6909C71.5142 26.5442 71.8967 26.3974 72.2908 26.2463C80.7324 23.1532 91.0492 22.5191 100.313 21.6956C100.847 21.6479 100.847 21.6479 101.391 21.5994C147.801 17.4988 194.78 16.1067 342.82 11.0986C345.041 11.0346 347.262 10.9693 349.483 10.9036C386.757 9.80589 424.041 9.85384 461.338 9.85465ZM361.958 20.2683C361.623 20.2759 361.288 20.2835 360.943 20.2913C353.361 20.4637 345.782 20.6726 338.204 20.915C336.217 20.978 334.231 21.0382 332.244 21.0985C319.202 21.495 306.163 21.9392 293.127 22.4312C286.108 22.6947 279.093 22.9083 272.066 23.0192C268.683 23.0736 265.327 23.2002 261.953 23.3857C258.592 23.5533 255.226 23.6464 251.861 23.7502C232.801 24.3413 213.75 25.0738 194.712 25.9561C187.717 26.2796 180.72 26.5657 173.719 26.8171C169.814 26.9467 169.814 26.9467 165.927 27.2359C163.158 27.4939 160.381 27.5279 157.591 27.5892C152.665 27.7201 147.765 28.0622 142.856 28.3798C140.521 28.5288 138.184 28.6678 135.847 28.8067C106.491 28.883 106.491 28.8831 80.0345 34.8975C78.6511 35.2738 78.6511 35.2738 77.1905 35.5665C70.5387 37.0856 66.7881 40.1723 63.6354 44.5477C61.968 46.9634 60.7109 49.4138 59.7557 52.0243C59.6372 52.3479 59.5187 52.6715 59.3966 53.0048C57.5867 58.1216 56.4559 63.2561 55.7216 68.503C55.6575 68.9589 55.6574 68.9589 55.592 69.4239C54.5979 76.6682 54.5169 83.892 54.5843 91.1657C54.5935 92.2323 54.5994 93.2988 54.6045 94.3654C54.6622 105.615 55.0026 116.809 56.2935 128.025C56.3373 128.407 56.3373 128.407 56.3819 128.797C57.3824 137.538 58.4456 146.275 59.6397 155.003C59.7593 155.882 59.8768 156.762 59.994 157.642C60.192 159.121 60.3986 160.599 60.6113 162.076C60.6902 162.632 60.7665 163.187 60.8402 163.743C61.3795 167.787 62.1197 171.21 66.4039 174.063C76.0341 179.419 89.9642 181.05 101.766 181.903C102.14 181.931 102.513 181.959 102.898 181.988C113.188 182.755 123.529 183.131 133.855 183.546C134.887 183.588 135.919 183.629 136.95 183.671C137.633 183.698 138.316 183.726 138.998 183.753C143.367 183.929 147.727 184.142 152.088 184.4C157.236 184.702 162.386 184.91 167.544 185.089C168.132 185.109 168.132 185.109 168.731 185.13C171.194 185.215 173.657 185.299 176.121 185.383C197.564 186.108 197.564 186.108 205.482 186.594C222.291 187.61 239.004 187.738 255.866 187.723C256.747 187.723 256.747 187.723 257.646 187.722C286.095 187.699 314.506 187.166 342.935 186.455C346.256 186.372 349.577 186.291 352.898 186.21C356.547 186.121 360.196 186.031 363.845 185.941C365.375 185.903 366.906 185.865 368.436 185.828C370.226 185.784 372.015 185.74 373.805 185.694C374.762 185.67 375.719 185.647 376.675 185.624C379.877 185.542 383.055 185.401 386.246 185.196C388.634 185.059 391.024 185.007 393.418 184.954C394.534 184.928 395.651 184.901 396.767 184.874C397.35 184.861 397.934 184.847 398.535 184.833C409.096 184.586 419.653 184.3 430.209 183.966C430.797 183.947 431.385 183.928 431.991 183.909C435.562 183.796 439.133 183.681 442.704 183.566C445.108 183.489 447.512 183.412 449.916 183.336C464.452 182.873 478.988 182.398 493.522 181.903C494.024 181.886 494.525 181.869 495.042 181.851C501.704 181.624 508.366 181.395 515.028 181.165C517.895 181.066 520.763 180.967 523.63 180.869C526.473 180.771 529.317 180.673 532.16 180.575C533.224 180.538 534.289 180.501 535.353 180.465C540.396 180.293 545.434 180.117 550.468 179.834C552.988 179.705 555.512 179.66 558.037 179.606C563.759 179.47 569.476 179.283 575.194 179.071C575.806 179.048 575.806 179.048 576.431 179.025C580.803 178.863 585.174 178.689 589.543 178.487C630.216 176.605 630.216 176.605 644.649 185C647.865 187.198 650.367 189.687 652.815 192.339C653.469 193.039 654.124 193.739 654.778 194.438C655.27 194.964 655.27 194.964 655.771 195.501C657.238 197.06 658.733 198.603 660.234 200.145C660.517 200.435 660.8 200.726 661.091 201.025C661.662 201.611 662.233 202.197 662.804 202.783C663.976 203.986 665.144 205.192 666.312 206.397C671.537 211.788 676.795 217.159 682.146 222.486C682.948 223.285 683.748 224.086 684.547 224.887C690.695 231.047 696.951 237.142 703.352 243.167C704.102 243.874 704.85 244.582 705.597 245.291C708.609 248.14 711.721 250.929 714.874 253.698C715.359 254.124 715.841 254.551 716.322 254.979C716.895 255.484 717.482 255.981 718.072 256.476C718.235 256.476 718.398 256.476 718.567 256.476C718.645 248.986 718.492 241.534 717.997 234.051C717.857 231.905 717.728 229.759 717.598 227.612C717.562 227.026 717.526 226.439 717.49 225.852C716.99 217.669 716.562 209.484 716.136 201.299C716.046 199.587 715.956 197.874 715.865 196.161C715.757 194.12 715.65 192.079 715.545 190.038C715.506 189.283 715.466 188.528 715.426 187.773C715.319 185.763 715.223 183.753 715.144 181.742C715.105 180.848 715.05 179.954 714.994 179.061C714.971 178.517 714.948 177.973 714.926 177.43C714.888 176.732 714.888 176.732 714.85 176.019C715.189 174.353 715.941 173.803 717.577 172.626C719.071 172.087 720.607 172.217 722.245 172.224C722.637 172.225 723.03 172.227 723.434 172.228C733.409 172.287 743.37 172.716 753.328 173.123C761.416 173.456 761.416 173.456 769.511 173.696C769.928 173.706 770.344 173.717 770.774 173.727C772.002 173.754 773.229 173.771 774.457 173.785C774.815 173.793 775.174 173.801 775.543 173.808C778.627 173.823 780.815 173.079 783.143 171.667C783.542 171.433 783.542 171.433 783.949 171.194C784.244 170.96 784.539 170.726 784.843 170.485C785.048 170.326 785.252 170.167 785.463 170.003C788.163 167.483 788.035 164.19 788.367 161.141C788.446 160.485 788.525 159.829 788.605 159.173C789.601 150.709 790.226 142.219 790.779 133.734C790.803 133.376 790.828 133.018 790.853 132.649C791.345 125.314 791.366 117.981 791.365 110.639C791.365 109.265 791.368 107.892 791.375 106.518C791.412 98.7906 791.4 91.118 790.284 83.4235C790.239 83.1077 790.193 82.7919 790.147 82.4665C789.854 80.4841 789.512 78.508 789.14 76.5326C789.087 76.2458 789.034 75.959 788.979 75.6635C787.277 66.5662 784.587 57.624 778.438 49.5026C777.903 48.7914 777.386 48.0739 776.87 47.3551C771.398 39.8791 763.378 34.2037 752.2 31.3294C748.79 30.601 745.281 30.1064 741.813 29.5454C741.358 29.4715 740.904 29.3976 740.435 29.3215C733.043 28.1313 725.693 27.2771 718.165 26.6909C717.614 26.6469 717.063 26.603 716.495 26.5577C690.079 24.4628 663.496 23.4859 636.975 22.3508C630.013 22.0527 623.052 21.7434 616.091 21.428C615.168 21.3863 614.245 21.3447 613.321 21.303C612.475 21.2648 611.63 21.2265 610.784 21.1882C610.256 21.1644 610.256 21.1644 609.717 21.14C609.371 21.1243 609.026 21.1086 608.67 21.0924C608.322 21.0767 607.974 21.0609 607.616 21.0447C606.677 21.0002 605.738 20.9524 604.799 20.9024C599.396 20.6224 593.992 20.4812 588.578 20.3601C588.078 20.3487 587.578 20.3374 587.062 20.3257C583.14 20.2373 579.218 20.1546 575.296 20.0746C574.407 20.0564 574.407 20.0564 573.501 20.0379C543.139 19.4238 512.784 19.4018 482.412 19.436C476.795 19.4423 471.178 19.4439 465.561 19.4421C431.018 19.4315 396.488 19.4843 361.958 20.2683Z" fill="#8D5115"/>
</svg>
